<?xml version="1.0" encoding="utf-8" standalone="no"?><svg xmlns="http://www.w3.org/2000/svg" xmlns:xlink="http://www.w3.org/1999/xlink" width="37.08407416814834mm" height="37.08407416814834mm" viewBox="3947 3376 146 146"><title>Photo View</title><rect x="3947" y="3376" width="146" height="146" fill="#000000" stroke="none"/><defs xmlns="http://www.w3.org/2000/svg" id="patterns"><pattern id="gridPattern" x="4000" y="3000" width="10" height="10" patternUnits="userSpaceOnUse"><rect id="gridCell" x="0" y="0" width="0.50001" height="0.50001" fill="#FFFFFF" stroke="none"/></pattern><pattern id="gridPattern2" x="4000.50001" y="3000.50001" width="10" height="10" patternUnits="userSpaceOnUse"><path id="gridCell2" d="M10 0V10H-10" fill="none" stroke="#FFFFFF" stroke-width="0.50001" stroke-opacity="0.6"/></pattern><marker id="arrowOnStart" orient="auto" refY="0" refX="0" style="overflow:visible" markerUnits="strokeWidth"><path d="M 2,0 l 4,-2, 0,4 z" stroke-width="6"/></marker><marker id="arrowOnEnd" orient="auto" refY="0" refX="0" style="overflow:visible" markerUnits="strokeWidth"><path d="M -2,0 l -4,-2, 0,4 z" stroke-width="6"/></marker><marker id="arrowOnStartChrome" orient="auto" refY="0" refX="0" style="overflow:visible" markerUnits="strokeWidth"><path d="M 2,0 l 4,-2, 0,4 z" stroke-width="3" stroke="#FFFFFF"/></marker><marker id="arrowOnEndChrome" orient="auto" refY="0" refX="0" style="overflow:visible" markerUnits="strokeWidth"><path d="M -2,0 l -4,-2, 0,4 z" stroke-width="3" stroke="#FFFFFF"/></marker><svg id="icon-lock" title="Unlock" viewBox="0 0 20 20" height="20" width="20"><path stroke="#F0F" stroke-width="2" style="cursor:pointer;fill-opacity:.001;fill:#fff" d="M 5 7 C 5 -1 15 -1 15 7L1 7 1 19 19 19 19 7 15 7"/></svg><mask id="multiLayerMask" maskUnits="userSpaceOnUse" x="3957" y="3386" width="126" height="126"><path d="M3957.008 3511.992,3957.008 3386.008,4082.992 3386.008,4082.992 3511.992z" stroke="none" fill="white"/><g fill="black"><circle cx="4066.0629" cy="3449" r="1.7717" stroke-width="0"/><circle cx="3988.3072" cy="3449" r="1.7717" stroke-width="0"/><circle cx="3966.851" cy="3395.851" r="5.9055" stroke-width="0"/><circle cx="3966.851" cy="3502.15" r="5.9055" stroke-width="0"/><circle cx="4073.149" cy="3502.15" r="5.9055" stroke-width="0"/><circle cx="4073.149" cy="3395.851" r="5.9055" stroke-width="0"/></g></mask><mask id="topBoardSolderMask" maskUnits="userSpaceOnUse" x="3957" y="3386" width="126" height="126"><path d="M3957.008 3511.992,3957.008 3386.008,4082.992 3386.008,4082.992 3511.992z" stroke="none" fill="white"/><g fill="black"><path d="M3985.663 3397.0315A4.337 4.337 0 0 1 3994.337 3397.0315L3994.337 3400.9685A4.337 4.337 0 0 1 3985.663 3400.9685z" stroke-width="0" c_etype="pad_outer"/><path d="M4045.663 3397.0315A4.337 4.337 0 0 1 4054.337 3397.0315L4054.337 3400.9685A4.337 4.337 0 0 1 4045.663 3400.9685z" stroke-width="0" c_etype="pad_outer"/><ellipse cx="4066.063" cy="3449" rx="3.2" ry="3.2" stroke-width="0" c_etype="pad_outer"/><ellipse cx="3988.307" cy="3449" rx="3.2" ry="3.2" stroke-width="0" c_etype="pad_outer"/></g></mask><mask id="topSignalSolderMask" maskUnits="userSpaceOnUse" x="3957" y="3386" width="126" height="126"><path d="M3957.008 3511.992,3957.008 3386.008,4082.992 3386.008,4082.992 3511.992z" stroke="none" fill="white"/><g fill="black"><path d="M3985.663 3397.0315A4.337 4.337 0 0 1 3994.337 3397.0315L3994.337 3400.9685A4.337 4.337 0 0 1 3985.663 3400.9685z" stroke-width="0" c_etype="pad_outer"/><path d="M4045.663 3397.0315A4.337 4.337 0 0 1 4054.337 3397.0315L4054.337 3400.9685A4.337 4.337 0 0 1 4045.663 3400.9685z" stroke-width="0" c_etype="pad_outer"/><ellipse cx="4066.063" cy="3449" rx="3.2" ry="3.2" stroke-width="0" c_etype="pad_outer"/><ellipse cx="3988.307" cy="3449" rx="3.2" ry="3.2" stroke-width="0" c_etype="pad_outer"/></g></mask><mask id="bottomBoardSolderMask" maskUnits="userSpaceOnUse" x="3957" y="3386" width="126" height="126"><path d="M3957.008 3511.992,3957.008 3386.008,4082.992 3386.008,4082.992 3511.992z" stroke="none" fill="white"/><g fill="black"><ellipse cx="4066.063" cy="3449" rx="3.2" ry="3.2" stroke-width="0" c_etype="pad_outer"/><ellipse cx="3988.307" cy="3449" rx="3.2" ry="3.2" stroke-width="0" c_etype="pad_outer"/></g></mask><mask id="bottomSignalSolderMask" maskUnits="userSpaceOnUse" x="3957" y="3386" width="126" height="126"><path d="M3957.008 3511.992,3957.008 3386.008,4082.992 3386.008,4082.992 3511.992z" stroke="none" fill="white"/><g fill="black"><ellipse cx="4066.063" cy="3449" rx="3.2" ry="3.2" stroke-width="0" c_etype="pad_outer"/><ellipse cx="3988.307" cy="3449" rx="3.2" ry="3.2" stroke-width="0" c_etype="pad_outer"/></g></mask></defs><g xmlns="http://www.w3.org/2000/svg" id="g1" mask="url(#multiLayerMask)" class="photoview"><g id="layer_other" class="shapeBox"><path d="M3957.008 3511.992,3957.008 3386.008,4082.992 3386.008,4082.992 3511.992z" stroke="none" id="boardOutlineReal" fill="#DCAA14"/><path d="M3957.008 3511.992,3957.008 3386.008,4082.992 3386.008,4082.992 3511.992z" stroke="none" id="topBoardSolderReal" mask="url(#topBoardSolderMask)" fill="#FFFFFF"/><g id="topSignalReal" fill="#DCAA14" stroke="#DCAA14"><polyline points="4050.0001 3399.0001 4042.7651 3391.7651 3987.9311 3391.7651 3984.0321 3395.6641 3984.0321 3444.7251 3988.3071 3449.0001" stroke-width="1" c_shapetype="line" stroke-linecap="round" fill="none" layerid="1" net="" id="gge469_1" locked="0"/><polyline points="4066.0631 3449.0001 4016.0631 3399.0001 3990.0001 3399.0001" stroke-width="1" c_shapetype="line" stroke-linecap="round" fill="none" layerid="1" net="" id="gge466_1" locked="0"/><g c_partid="part_pad" c_etype="pinpart" layerid="1" id="gge21_1" c_origin="3990,3399" net="" c_rotation="270" c_width="11.811" c_height="7.874"><polyline points="3990 3397.0315 3990 3400.9685" stroke-width="7.874"/></g><g c_partid="part_pad" c_etype="pinpart" layerid="1" id="gge54_1" c_origin="4050,3399" net="" c_rotation="270" c_width="11.811" c_height="7.874"><polyline points="4050 3397.0315 4050 3400.9685" stroke-width="7.874"/></g><g c_partid="part_pad" c_etype="pinpart" layerid="11" id="gge418_11" c_origin="4066.063,3449" net="" c_rotation="0" c_width="6" c_height="6"><ellipse cx="4066.063" cy="3449" rx="3" ry="3" stroke-width="0" c_etype="pad_shell"/></g><g c_partid="part_pad" c_etype="pinpart" layerid="11" id="gge433_11" c_origin="3988.307,3449" net="" c_rotation="0" c_width="6" c_height="6"><ellipse cx="3988.307" cy="3449" rx="3" ry="3" stroke-width="0" c_etype="pad_shell"/></g></g><g id="topSignalSolderReal" mask="url(#topSignalSolderMask)" fill="#FFFFFF" stroke="#FFFFFF"><polyline points="4050.0001 3399.0001 4042.7651 3391.7651 3987.9311 3391.7651 3984.0321 3395.6641 3984.0321 3444.7251 3988.3071 3449.0001" stroke-width="1" c_shapetype="line" stroke-linecap="round" fill="none" layerid="1" net="" id="gge469_1" locked="0"/><polyline points="4066.0631 3449.0001 4016.0631 3399.0001 3990.0001 3399.0001" stroke-width="1" c_shapetype="line" stroke-linecap="round" fill="none" layerid="1" net="" id="gge466_1" locked="0"/><g c_partid="part_pad" c_etype="pinpart" layerid="1" id="gge21_1" c_origin="3990,3399" net="" c_rotation="270" c_width="11.811" c_height="7.874"><polyline points="3990 3397.0315 3990 3400.9685" stroke-width="7.874"/></g><g c_partid="part_pad" c_etype="pinpart" layerid="1" id="gge54_1" c_origin="4050,3399" net="" c_rotation="270" c_width="11.811" c_height="7.874"><polyline points="4050 3397.0315 4050 3400.9685" stroke-width="7.874"/></g><g c_partid="part_pad" c_etype="pinpart" layerid="11" id="gge418_11" c_origin="4066.063,3449" net="" c_rotation="0" c_width="6" c_height="6"><ellipse cx="4066.063" cy="3449" rx="3" ry="3" stroke-width="0" c_etype="pad_shell"/></g><g c_partid="part_pad" c_etype="pinpart" layerid="11" id="gge433_11" c_origin="3988.307,3449" net="" c_rotation="0" c_width="6" c_height="6"><ellipse cx="3988.307" cy="3449" rx="3" ry="3" stroke-width="0" c_etype="pad_shell"/></g></g><g id="topSilkLayer" fill="#000000" stroke="#000000"><g c_partid="part_pcbtext" c_etype="pinpart" c_origin="4008,3505.5" c_rotation="0" c_mirror="0" id="gge271_3" locked="0" layerid="3" c_shapetype="group"><path c_fontsize="5.9055" c_fontfamily="" c_text="hello" d="M 4008 3499.54 L 4008 3505.18 M 4008 3502.49 L 4008.81 3501.69 L 4009.34 3501.42 L 4010.15 3501.42 L 4010.68 3501.69 L 4010.95 3502.49 L 4010.95 3505.18 M 4012.72 3503.03 L 4015.95 3503.03 L 4015.95 3502.49 L 4015.68 3501.96 L 4015.41 3501.69 L 4014.87 3501.42 L 4014.07 3501.42 L 4013.53 3501.69 L 4012.99 3502.23 L 4012.72 3503.03 L 4012.72 3503.57 L 4012.99 3504.37 L 4013.53 3504.91 L 4014.07 3505.18 L 4014.87 3505.18 L 4015.41 3504.91 L 4015.95 3504.37 M 4017.72 3499.54 L 4017.72 3505.18 M 4019.49 3499.54 L 4019.49 3505.18 M 4022.6 3501.42 L 4022.07 3501.69 L 4021.53 3502.23 L 4021.26 3503.03 L 4021.26 3503.57 L 4021.53 3504.37 L 4022.07 3504.91 L 4022.6 3505.18 L 4023.41 3505.18 L 4023.94 3504.91 L 4024.48 3504.37 L 4024.75 3503.57 L 4024.75 3503.03 L 4024.48 3502.23 L 4023.94 3501.69 L 4023.41 3501.42 L 4022.6 3501.42" fill="none" stroke-width="0.5906"/></g><g c_partid="part_pcbtext" c_etype="pinpart" c_origin="4030,3504.5" c_rotation="0" c_mirror="0" id="gge292_3" locked="0" layerid="3" c_shapetype="group"><path c_fontsize="7.874" c_fontfamily="NotoSansCJKsc-DemiLight" c_text=":)" d="M 4030.44 3501.74 C 4030.68 3501.74 4030.87 3501.55 4030.87 3501.29 C 4030.87 3501.01 4030.68 3500.82 4030.44 3500.82 C 4030.21 3500.82 4030.01 3501.01 4030.01 3501.29 C 4030.01 3501.55 4030.21 3501.74 4030.44 3501.74 Z  M 4030.44 3504.59 C 4030.68 3504.59 4030.87 3504.41 4030.87 3504.14 C 4030.87 3503.86 4030.68 3503.68 4030.44 3503.68 C 4030.21 3503.68 4030.01 3503.86 4030.01 3504.14 C 4030.01 3504.41 4030.21 3504.59 4030.44 3504.59 Z  M 4032.03 3505.87 C 4032.67 3504.83 4033.06 3503.71 4033.06 3502.33 C 4033.06 3500.96 4032.67 3499.83 4032.03 3498.79 L 4031.68 3498.96 C 4032.28 3499.95 4032.58 3501.13 4032.58 3502.33 C 4032.58 3503.53 4032.28 3504.71 4031.68 3505.7 Z " stroke="none" stroke-width="0.8"/></g><g c_partid="part_pcbtext" c_etype="" c_origin="3999,3399" c_rotation="270" c_mirror="0" id="gge9_3" locked="0" layerid="3" c_shapetype="group" display="none"><path c_fontsize="4.5" c_fontfamily="" c_text="SOLDERWIRE" d="M 4002.93 3401.86 L 4003.34 3401.45 L 4003.54 3400.84 L 4003.54 3400.02 L 4003.34 3399.41 L 4002.93 3399 L 4002.52 3399 L 4002.11 3399.2 L 4001.9 3399.41 L 4001.7 3399.82 L 4001.29 3401.05 L 4001.09 3401.45 L 4000.88 3401.66 L 4000.47 3401.86 L 3999.86 3401.86 L 3999.45 3401.45 L 3999.25 3400.84 L 3999.25 3400.02 L 3999.45 3399.41 L 3999.86 3399 M 4003.54 3404.44 L 4003.34 3404.03 L 4002.93 3403.62 L 4002.52 3403.42 L 4001.9 3403.21 L 4000.88 3403.21 L 4000.27 3403.42 L 3999.86 3403.62 L 3999.45 3404.03 L 3999.25 3404.44 L 3999.25 3405.26 L 3999.45 3405.67 L 3999.86 3406.08 L 4000.27 3406.28 L 4000.88 3406.49 L 4001.9 3406.49 L 4002.52 3406.28 L 4002.93 3406.08 L 4003.34 3405.67 L 4003.54 3405.26 L 4003.54 3404.44 M 4003.54 3407.84 L 3999.25 3407.84 M 3999.25 3407.84 L 3999.25 3410.29 M 4003.54 3411.64 L 3999.25 3411.64 M 4003.54 3411.64 L 4003.54 3413.07 L 4003.34 3413.69 L 4002.93 3414.1 L 4002.52 3414.3 L 4001.9 3414.5 L 4000.88 3414.5 L 4000.27 3414.3 L 3999.86 3414.1 L 3999.45 3413.69 L 3999.25 3413.07 L 3999.25 3411.64 M 4003.54 3415.85 L 3999.25 3415.85 M 4003.54 3415.85 L 4003.54 3418.51 M 4001.5 3415.85 L 4001.5 3417.49 M 3999.25 3415.85 L 3999.25 3418.51 M 4003.54 3419.86 L 3999.25 3419.86 M 4003.54 3419.86 L 4003.54 3421.7 L 4003.34 3422.32 L 4003.13 3422.52 L 4002.72 3422.73 L 4002.31 3422.73 L 4001.9 3422.52 L 4001.7 3422.32 L 4001.5 3421.7 L 4001.5 3419.86 M 4001.5 3421.3 L 3999.25 3422.73 M 4003.54 3424.08 L 3999.25 3425.1 M 4003.54 3426.12 L 3999.25 3425.1 M 4003.54 3426.12 L 3999.25 3427.15 M 4003.54 3428.17 L 3999.25 3427.15 M 4003.54 3429.52 L 3999.25 3429.52 M 4003.54 3430.87 L 3999.25 3430.87 M 4003.54 3430.87 L 4003.54 3432.71 L 4003.34 3433.32 L 4003.13 3433.53 L 4002.72 3433.73 L 4002.31 3433.73 L 4001.9 3433.53 L 4001.7 3433.32 L 4001.5 3432.71 L 4001.5 3430.87 M 4001.5 3432.3 L 3999.25 3433.73 M 4003.54 3435.08 L 3999.25 3435.08 M 4003.54 3435.08 L 4003.54 3437.74 M 4001.5 3435.08 L 4001.5 3436.72 M 3999.25 3435.08 L 3999.25 3437.74" fill="none" stroke-width="0.6" c_note="note_name" style=""/></g><g c_partid="part_pcbtext" c_etype="" c_origin="3988.5,3407.5" c_rotation="270" c_mirror="0" id="gge15_3" locked="0" layerid="3" c_shapetype="group"><path c_fontsize="3.1496" c_fontfamily="" c_text="+" d="M 3991.247 3408.793 L 3988.667 3408.793 M 3989.957 3407.503 L 3989.957 3410.073" fill="none" stroke-width="0.3937" c_note="note_pre" style=""/></g><g c_partid="part_pcbtext" c_etype="" c_origin="4059,3399" c_rotation="270" c_mirror="0" id="gge42_3" locked="0" layerid="3" c_shapetype="group" display="none"><path c_fontsize="4.5" c_fontfamily="" c_text="SOLDERWIRE" d="M 4062.93 3401.86 L 4063.34 3401.45 L 4063.54 3400.84 L 4063.54 3400.02 L 4063.34 3399.41 L 4062.93 3399 L 4062.52 3399 L 4062.11 3399.2 L 4061.9 3399.41 L 4061.7 3399.82 L 4061.29 3401.05 L 4061.09 3401.45 L 4060.88 3401.66 L 4060.47 3401.86 L 4059.86 3401.86 L 4059.45 3401.45 L 4059.25 3400.84 L 4059.25 3400.02 L 4059.45 3399.41 L 4059.86 3399 M 4063.54 3404.44 L 4063.34 3404.03 L 4062.93 3403.62 L 4062.52 3403.42 L 4061.9 3403.21 L 4060.88 3403.21 L 4060.27 3403.42 L 4059.86 3403.62 L 4059.45 3404.03 L 4059.25 3404.44 L 4059.25 3405.26 L 4059.45 3405.67 L 4059.86 3406.08 L 4060.27 3406.28 L 4060.88 3406.49 L 4061.9 3406.49 L 4062.52 3406.28 L 4062.93 3406.08 L 4063.34 3405.67 L 4063.54 3405.26 L 4063.54 3404.44 M 4063.54 3407.84 L 4059.25 3407.84 M 4059.25 3407.84 L 4059.25 3410.29 M 4063.54 3411.64 L 4059.25 3411.64 M 4063.54 3411.64 L 4063.54 3413.07 L 4063.34 3413.69 L 4062.93 3414.1 L 4062.52 3414.3 L 4061.9 3414.5 L 4060.88 3414.5 L 4060.27 3414.3 L 4059.86 3414.1 L 4059.45 3413.69 L 4059.25 3413.07 L 4059.25 3411.64 M 4063.54 3415.85 L 4059.25 3415.85 M 4063.54 3415.85 L 4063.54 3418.51 M 4061.5 3415.85 L 4061.5 3417.49 M 4059.25 3415.85 L 4059.25 3418.51 M 4063.54 3419.86 L 4059.25 3419.86 M 4063.54 3419.86 L 4063.54 3421.7 L 4063.34 3422.32 L 4063.13 3422.52 L 4062.72 3422.73 L 4062.31 3422.73 L 4061.9 3422.52 L 4061.7 3422.32 L 4061.5 3421.7 L 4061.5 3419.86 M 4061.5 3421.3 L 4059.25 3422.73 M 4063.54 3424.08 L 4059.25 3425.1 M 4063.54 3426.12 L 4059.25 3425.1 M 4063.54 3426.12 L 4059.25 3427.15 M 4063.54 3428.17 L 4059.25 3427.15 M 4063.54 3429.52 L 4059.25 3429.52 M 4063.54 3430.87 L 4059.25 3430.87 M 4063.54 3430.87 L 4063.54 3432.71 L 4063.34 3433.32 L 4063.13 3433.53 L 4062.72 3433.73 L 4062.31 3433.73 L 4061.9 3433.53 L 4061.7 3433.32 L 4061.5 3432.71 L 4061.5 3430.87 M 4061.5 3432.3 L 4059.25 3433.73 M 4063.54 3435.08 L 4059.25 3435.08 M 4063.54 3435.08 L 4063.54 3437.74 M 4061.5 3435.08 L 4061.5 3436.72 M 4059.25 3435.08 L 4059.25 3437.74" fill="none" stroke-width="0.6" c_note="note_name" style=""/></g><g c_partid="part_pcbtext" c_etype="" c_origin="4048.5,3407.5" c_rotation="270" c_mirror="0" id="gge48_3" locked="0" layerid="3" c_shapetype="group"><path c_fontsize="3.1496" c_fontfamily="" c_text="-" d="M 4049.964 3407.496 L 4049.964 3410.076" fill="none" stroke-width="0.3937" c_note="note_pre" style=""/></g><g c_partid="part_pcbtext" c_etype="" c_origin="4008.5,3451.5" c_rotation="0" c_mirror="0" id="gge75_3" locked="0" layerid="3" c_shapetype="group"><path c_fontsize="4.5" c_fontfamily="" c_text="Battery" d="M 4008.5 3446.96 L 4008.5 3451.25 M 4008.5 3446.96 L 4010.34 3446.96 L 4010.95 3447.16 L 4011.16 3447.37 L 4011.36 3447.78 L 4011.36 3448.19 L 4011.16 3448.6 L 4010.95 3448.8 L 4010.34 3449 M 4008.5 3449 L 4010.34 3449 L 4010.95 3449.21 L 4011.16 3449.41 L 4011.36 3449.82 L 4011.36 3450.44 L 4011.16 3450.85 L 4010.95 3451.05 L 4010.34 3451.25 L 4008.5 3451.25 M 4015.17 3448.39 L 4015.17 3451.25 M 4015.17 3449 L 4014.76 3448.6 L 4014.35 3448.39 L 4013.74 3448.39 L 4013.33 3448.6 L 4012.92 3449 L 4012.71 3449.62 L 4012.71 3450.03 L 4012.92 3450.64 L 4013.33 3451.05 L 4013.74 3451.25 L 4014.35 3451.25 L 4014.76 3451.05 L 4015.17 3450.64 M 4017.13 3446.96 L 4017.13 3450.44 L 4017.34 3451.05 L 4017.75 3451.25 L 4018.15 3451.25 M 4016.52 3448.39 L 4017.95 3448.39 M 4020.12 3446.96 L 4020.12 3450.44 L 4020.32 3451.05 L 4020.73 3451.25 L 4021.14 3451.25 M 4019.5 3448.39 L 4020.94 3448.39 M 4022.49 3449.62 L 4024.95 3449.62 L 4024.95 3449.21 L 4024.74 3448.8 L 4024.54 3448.6 L 4024.13 3448.39 L 4023.51 3448.39 L 4023.1 3448.6 L 4022.7 3449 L 4022.49 3449.62 L 4022.49 3450.03 L 4022.7 3450.64 L 4023.1 3451.05 L 4023.51 3451.25 L 4024.13 3451.25 L 4024.54 3451.05 L 4024.95 3450.64 M 4026.3 3448.39 L 4026.3 3451.25 M 4026.3 3449.62 L 4026.5 3449 L 4026.91 3448.6 L 4027.32 3448.39 L 4027.93 3448.39 M 4029.49 3448.39 L 4030.71 3451.25 M 4031.94 3448.39 L 4030.71 3451.25 L 4030.3 3452.07 L 4029.9 3452.48 L 4029.49 3452.69 L 4029.28 3452.69" fill="none" stroke-width="0.6" c_note="note_name" style=""/></g><g c_partid="part_pcbtext" c_etype="" c_origin="4005.5,3451.5" c_rotation="0" c_mirror="0" id="gge81_3" locked="0" layerid="3" c_shapetype="group" display="none"><path c_fontsize="4.5" c_fontfamily="" c_text="BAT1" d="M 4005.5 3446.96L4005.5 3451.25 M 4005.5 3446.96L4007.34 3446.96 L4007.95 3447.16 L4008.16 3447.37 L4008.36 3447.78 L4008.36 3448.19 L4008.16 3448.6 L4007.95 3448.8 L4007.34 3449 M 4005.5 3449L4007.34 3449 L4007.95 3449.21 L4008.16 3449.41 L4008.36 3449.82 L4008.36 3450.44 L4008.16 3450.85 L4007.95 3451.05 L4007.34 3451.25 L4005.5 3451.25 M 4011.35 3446.96L4009.71 3451.25 M 4011.35 3446.96L4012.99 3451.25 M 4010.33 3449.82L4012.37 3449.82 M 4015.77 3446.96L4015.77 3451.25 M 4014.34 3446.96L4017.2 3446.96 M 4018.55 3447.78L4018.96 3447.57 L4019.57 3446.96 L4019.57 3451.25 " fill="none" stroke-width="0.6" c_note="note_pre" style=""/></g><polyline points="4071.181 3463.7638 4071.181 3434.2363" stroke-width="0.598424" c_shapetype="line" stroke-linecap="round" fill="none" layerid="3" net="" id="gge406_3" locked="0"/><polyline points="4071.181 3434.2363 4060.7165 3434.2363" stroke-width="0.598424" c_shapetype="line" stroke-linecap="round" fill="none" layerid="3" net="" id="gge409_3" locked="0"/><polyline points="4060.7165 3463.7638 4071.181 3463.7638" stroke-width="0.598424" c_shapetype="line" stroke-linecap="round" fill="none" layerid="3" net="" id="gge412_3" locked="0"/><path d="M 4060.6943 3434.1885 A 43.306 43.306 0 1 0 4060.6943 3463.8115" locked="0" c_shapetype="line" fill="none" stroke-width="0.598424" c_helper_type="arc2" net="" layerid="3" id="gge415_3"/></g><path d="M3957.008 3511.992,3957.008 3386.008,4082.992 3386.008,4082.992 3511.992z" stroke="none" id="bottomBoardSolderReal" mask="url(#bottomBoardSolderMask)" fill="#FFFFFF" display="none"/><g id="bottomSignalReal" fill="#DCAA14" stroke="#DCAA14" display="none"><g c_partid="part_pad" c_etype="pinpart" layerid="11" id="gge418_11" c_origin="4066.063,3449" net="" c_rotation="0" c_width="6" c_height="6"><ellipse cx="4066.063" cy="3449" rx="3" ry="3" stroke-width="0" c_etype="pad_hole"/></g><g c_partid="part_pad" c_etype="pinpart" layerid="11" id="gge433_11" c_origin="3988.307,3449" net="" c_rotation="0" c_width="6" c_height="6"><ellipse cx="3988.307" cy="3449" rx="3" ry="3" stroke-width="0" c_etype="pad_hole"/></g></g><g id="bottomSignalSolderReal" mask="url(#bottomSignalSolderMask)" fill="#FFFFFF" stroke="#FFFFFF" display="none"><g c_partid="part_pad" c_etype="pinpart" layerid="11" id="gge418_11" c_origin="4066.063,3449" net="" c_rotation="0" c_width="6" c_height="6"><ellipse cx="4066.063" cy="3449" rx="3" ry="3" stroke-width="0" c_etype="pad_hole"/></g><g c_partid="part_pad" c_etype="pinpart" layerid="11" id="gge433_11" c_origin="3988.307,3449" net="" c_rotation="0" c_width="6" c_height="6"><ellipse cx="3988.307" cy="3449" rx="3" ry="3" stroke-width="0" c_etype="pad_hole"/></g></g><g id="bottomSilkLayer" fill="#000000" stroke="#000000" display="none"><g c_partid="part_pcbtext" c_etype="pinpart" c_origin="4048,3450.5" c_rotation="0" c_mirror="1" id="gge316_4" locked="0" layerid="4" c_shapetype="group"><path c_fontsize="3.937" c_fontfamily="" c_text="nothing to see here" d="M 4048 3447.7799 L 4048 3450.2853 M 4048 3448.4957 L 4047.4631 3447.9588 L 4047.1052 3447.7799 L 4046.5684 3447.7799 L 4046.2105 3447.9588 L 4046.0315 3448.4957 L 4046.0315 3450.2853 M 4043.9556 3447.7799 L 4044.3135 3447.9588 L 4044.6714 3448.3168 L 4044.8504 3448.8536 L 4044.8504 3449.2115 L 4044.6714 3449.7484 L 4044.3135 3450.1063 L 4043.9556 3450.2853 L 4043.4188 3450.2853 L 4043.0609 3450.1063 L 4042.7029 3449.7484 L 4042.524 3449.2115 L 4042.524 3448.8536 L 4042.7029 3448.3168 L 4043.0609 3447.9588 L 4043.4188 3447.7799 L 4043.9556 3447.7799 M 4040.806 3446.5272 L 4040.806 3449.5694 L 4040.6271 3450.1063 L 4040.2692 3450.2853 L 4039.9113 3450.2853 M 4041.3429 3447.7799 L 4040.0902 3447.7799 M 4038.7302 3446.5272 L 4038.7302 3450.2853 M 4038.7302 3448.4957 L 4038.1933 3447.9588 L 4037.8354 3447.7799 L 4037.2985 3447.7799 L 4036.9406 3447.9588 L 4036.7617 3448.4957 L 4036.7617 3450.2853 M 4035.5806 3446.5272 L 4035.4016 3446.7062 L 4035.2226 3446.5272 L 4035.4016 3446.3483 L 4035.5806 3446.5272 M 4035.4016 3447.7799 L 4035.4016 3450.2853 M 4034.0415 3447.7799 L 4034.0415 3450.2853 M 4034.0415 3448.4957 L 4033.5047 3447.9588 L 4033.1468 3447.7799 L 4032.6099 3447.7799 L 4032.252 3447.9588 L 4032.073 3448.4957 L 4032.073 3450.2853 M 4028.7445 3447.7799 L 4028.7445 3450.6432 L 4028.9234 3451.18 L 4029.1024 3451.359 L 4029.4603 3451.5379 L 4029.9972 3451.5379 L 4030.3551 3451.359 M 4028.7445 3448.3168 L 4029.1024 3447.9588 L 4029.4603 3447.7799 L 4029.9972 3447.7799 L 4030.3551 3447.9588 L 4030.713 3448.3168 L 4030.8919 3448.8536 L 4030.8919 3449.2115 L 4030.713 3449.7484 L 4030.3551 3450.1063 L 4029.9972 3450.2853 L 4029.4603 3450.2853 L 4029.1024 3450.1063 L 4028.7445 3449.7484 M 4024.2706 3446.5272 L 4024.2706 3449.5694 L 4024.0917 3450.1063 L 4023.7338 3450.2853 L 4023.3759 3450.2853 M 4024.8075 3447.7799 L 4023.5548 3447.7799 M 4021.3 3447.7799 L 4021.6579 3447.9588 L 4022.0158 3448.3168 L 4022.1948 3448.8536 L 4022.1948 3449.2115 L 4022.0158 3449.7484 L 4021.6579 3450.1063 L 4021.3 3450.2853 L 4020.7631 3450.2853 L 4020.4052 3450.1063 L 4020.0473 3449.7484 L 4019.8683 3449.2115 L 4019.8683 3448.8536 L 4020.0473 3448.3168 L 4020.4052 3447.9588 L 4020.7631 3447.7799 L 4021.3 3447.7799 M 4013.9628 3448.3168 L 4014.1418 3447.9588 L 4014.6787 3447.7799 L 4015.2155 3447.7799 L 4015.7524 3447.9588 L 4015.9313 3448.3168 L 4015.7524 3448.6747 L 4015.3945 3448.8536 L 4014.4997 3449.0326 L 4014.1418 3449.2115 L 4013.9628 3449.5694 L 4013.9628 3449.7484 L 4014.1418 3450.1063 L 4014.6787 3450.2853 L 4015.2155 3450.2853 L 4015.7524 3450.1063 L 4015.9313 3449.7484 M 4012.7817 3448.8536 L 4010.6343 3448.8536 L 4010.6343 3448.4957 L 4010.8132 3448.1378 L 4010.9922 3447.9588 L 4011.3501 3447.7799 L 4011.887 3447.7799 L 4012.2449 3447.9588 L 4012.6028 3448.3168 L 4012.7817 3448.8536 L 4012.7817 3449.2115 L 4012.6028 3449.7484 L 4012.2449 3450.1063 L 4011.887 3450.2853 L 4011.3501 3450.2853 L 4010.9922 3450.1063 L 4010.6343 3449.7484 M 4009.4532 3448.8536 L 4007.3057 3448.8536 L 4007.3057 3448.4957 L 4007.4847 3448.1378 L 4007.6636 3447.9588 L 4008.0216 3447.7799 L 4008.5584 3447.7799 L 4008.9163 3447.9588 L 4009.2742 3448.3168 L 4009.4532 3448.8536 L 4009.4532 3449.2115 L 4009.2742 3449.7484 L 4008.9163 3450.1063 L 4008.5584 3450.2853 L 4008.0216 3450.2853 L 4007.6636 3450.1063 L 4007.3057 3449.7484 M 4003.3687 3446.5272 L 4003.3687 3450.2853 M 4003.3687 3448.4957 L 4002.8319 3447.9588 L 4002.474 3447.7799 L 4001.9371 3447.7799 L 4001.5792 3447.9588 L 4001.4002 3448.4957 L 4001.4002 3450.2853 M 4000.2191 3448.8536 L 3998.0717 3448.8536 L 3998.0717 3448.4957 L 3998.2506 3448.1378 L 3998.4296 3447.9588 L 3998.7875 3447.7799 L 3999.3244 3447.7799 L 3999.6823 3447.9588 L 4000.0402 3448.3168 L 4000.2191 3448.8536 L 4000.2191 3449.2115 L 4000.0402 3449.7484 L 3999.6823 3450.1063 L 3999.3244 3450.2853 L 3998.7875 3450.2853 L 3998.4296 3450.1063 L 3998.0717 3449.7484 M 3996.8906 3447.7799 L 3996.8906 3450.2853 M 3996.8906 3448.8536 L 3996.7116 3448.3168 L 3996.3537 3447.9588 L 3995.9958 3447.7799 L 3995.4589 3447.7799 M 3994.2778 3448.8536 L 3992.1304 3448.8536 L 3992.1304 3448.4957 L 3992.3093 3448.1378 L 3992.4883 3447.9588 L 3992.8462 3447.7799 L 3993.3831 3447.7799 L 3993.741 3447.9588 L 3994.0989 3448.3168 L 3994.2778 3448.8536 L 3994.2778 3449.2115 L 3994.0989 3449.7484 L 3993.741 3450.1063 L 3993.3831 3450.2853 L 3992.8462 3450.2853 L 3992.4883 3450.1063 L 3992.1304 3449.7484" fill="none" stroke-width="0.4921"/></g></g></g></g></svg>