<svg xmlns="http://www.w3.org/2000/svg" xmlns:xlink="http://www.w3.org/1999/xlink" width="515" height="547" viewBox="290 -772 515 547"><title>Sheet_1</title><style type="text/css">
path, polyline, polygon {stroke-linejoin:round;}
path, polyline, polygon, line {stroke-linecap:round;}
</style>
<rect x="290" y="-772" width="515" height="547" fill="#000000" stroke="none"/><g importFlag="0"><g locked="0" puuid="f6299121f1ed496ebfce564c5909587e" uuid="ee910d90057a4274aeb9a866b76c1e80" convert_to_pcb="yes" datastrid="" pdatastrid="" utime="1508861076" add_into_bom="yes" note_pre="U2"><g><text x="635.3722305297852" y="-706.8639960289001" fill="#FFFFFF" font-family="Arial" font-size="7pt" font-weight="" font-style="" dominant-baseline="" text-anchor="start">MAX7219 Dot Matrix Display</text></g><g display="none"><text font-family="Arial" font-size="7pt" fill="#FFFFFF" text-anchor="start" x="682" y="-596.75">U2</text></g><rect locked="0" x="520" y="-700" width="160" height="160" stroke="#FFFFFF" stroke-width="1" fill="none"/><ellipse cx="530" cy="-550" rx="10" ry="10" locked="0" stroke="#FFFFFF" stroke-width="1" fill="none"/><ellipse cx="530" cy="-570" rx="10" ry="10" locked="0" stroke="#FFFFFF" stroke-width="1" fill="none"/><ellipse cx="530" cy="-590" rx="10" ry="10" locked="0" stroke="#FFFFFF" stroke-width="1" fill="none"/><ellipse cx="530" cy="-610" rx="10" ry="10" locked="0" stroke="#FFFFFF" stroke-width="1" fill="none"/><ellipse cx="530" cy="-630" rx="10" ry="10" locked="0" stroke="#FFFFFF" stroke-width="1" fill="none"/><ellipse cx="530" cy="-650" rx="10" ry="10" locked="0" stroke="#FFFFFF" stroke-width="1" fill="none"/><ellipse cx="530" cy="-670" rx="10" ry="10" locked="0" stroke="#FFFFFF" stroke-width="1" fill="none"/><ellipse cx="530" cy="-690" rx="10" ry="10" locked="0" stroke="#FFFFFF" stroke-width="1" fill="none"/><ellipse cx="550" cy="-550" rx="10" ry="10" locked="0" stroke="#FFFFFF" stroke-width="1" fill="none"/><ellipse cx="550" cy="-570" rx="10" ry="10" locked="0" stroke="#FFFFFF" stroke-width="1" fill="none"/><ellipse cx="550" cy="-590" rx="10" ry="10" locked="0" stroke="#FFFFFF" stroke-width="1" fill="none"/><ellipse cx="550" cy="-610" rx="10" ry="10" locked="0" stroke="#FFFFFF" stroke-width="1" fill="none"/><ellipse cx="550" cy="-630" rx="10" ry="10" locked="0" stroke="#FFFFFF" stroke-width="1" fill="none"/><ellipse cx="550" cy="-650" rx="10" ry="10" locked="0" stroke="#FFFFFF" stroke-width="1" fill="none"/><ellipse cx="550" cy="-670" rx="10" ry="10" locked="0" stroke="#FFFFFF" stroke-width="1" fill="none"/><ellipse cx="550" cy="-690" rx="10" ry="10" locked="0" stroke="#FFFFFF" stroke-width="1" fill="none"/><ellipse cx="570" cy="-550" rx="10" ry="10" locked="0" stroke="#FFFFFF" stroke-width="1" fill="none"/><ellipse cx="570" cy="-570" rx="10" ry="10" locked="0" stroke="#FFFFFF" stroke-width="1" fill="none"/><ellipse cx="570" cy="-590" rx="10" ry="10" locked="0" stroke="#FFFFFF" stroke-width="1" fill="none"/><ellipse cx="570" cy="-610" rx="10" ry="10" locked="0" stroke="#FFFFFF" stroke-width="1" fill="none"/><ellipse cx="570" cy="-630" rx="10" ry="10" locked="0" stroke="#FFFFFF" stroke-width="1" fill="none"/><ellipse cx="570" cy="-650" rx="10" ry="10" locked="0" stroke="#FFFFFF" stroke-width="1" fill="none"/><ellipse cx="570" cy="-670" rx="10" ry="10" locked="0" stroke="#FFFFFF" stroke-width="1" fill="none"/><ellipse cx="570" cy="-690" rx="10" ry="10" locked="0" stroke="#FFFFFF" stroke-width="1" fill="none"/><ellipse cx="590" cy="-550" rx="10" ry="10" locked="0" stroke="#FFFFFF" stroke-width="1" fill="none"/><ellipse cx="590" cy="-570" rx="10" ry="10" locked="0" stroke="#FFFFFF" stroke-width="1" fill="none"/><ellipse cx="590" cy="-590" rx="10" ry="10" locked="0" stroke="#FFFFFF" stroke-width="1" fill="none"/><ellipse cx="590" cy="-610" rx="10" ry="10" locked="0" stroke="#FFFFFF" stroke-width="1" fill="none"/><ellipse cx="590" cy="-630" rx="10" ry="10" locked="0" stroke="#FFFFFF" stroke-width="1" fill="none"/><ellipse cx="590" cy="-650" rx="10" ry="10" locked="0" stroke="#FFFFFF" stroke-width="1" fill="none"/><ellipse cx="590" cy="-670" rx="10" ry="10" locked="0" stroke="#FFFFFF" stroke-width="1" fill="none"/><ellipse cx="590" cy="-690" rx="10" ry="10" locked="0" stroke="#FFFFFF" stroke-width="1" fill="none"/><ellipse cx="610" cy="-550" rx="10" ry="10" locked="0" stroke="#FFFFFF" stroke-width="1" fill="none"/><ellipse cx="610" cy="-570" rx="10" ry="10" locked="0" stroke="#FFFFFF" stroke-width="1" fill="none"/><ellipse cx="610" cy="-590" rx="10" ry="10" locked="0" stroke="#FFFFFF" stroke-width="1" fill="none"/><ellipse cx="610" cy="-610" rx="10" ry="10" locked="0" stroke="#FFFFFF" stroke-width="1" fill="none"/><ellipse cx="610" cy="-630" rx="10" ry="10" locked="0" stroke="#FFFFFF" stroke-width="1" fill="none"/><ellipse cx="610" cy="-650" rx="10" ry="10" locked="0" stroke="#FFFFFF" stroke-width="1" fill="none"/><ellipse cx="610" cy="-670" rx="10" ry="10" locked="0" stroke="#FFFFFF" stroke-width="1" fill="none"/><ellipse cx="610" cy="-690" rx="10" ry="10" locked="0" stroke="#FFFFFF" stroke-width="1" fill="none"/><ellipse cx="630" cy="-550" rx="10" ry="10" locked="0" stroke="#FFFFFF" stroke-width="1" fill="none"/><ellipse cx="630" cy="-570" rx="10" ry="10" locked="0" stroke="#FFFFFF" stroke-width="1" fill="none"/><ellipse cx="630" cy="-590" rx="10" ry="10" locked="0" stroke="#FFFFFF" stroke-width="1" fill="none"/><ellipse cx="630" cy="-610" rx="10" ry="10" locked="0" stroke="#FFFFFF" stroke-width="1" fill="none"/><ellipse cx="630" cy="-630" rx="10" ry="10" locked="0" stroke="#FFFFFF" stroke-width="1" fill="none"/><ellipse cx="630" cy="-650" rx="10" ry="10" locked="0" stroke="#FFFFFF" stroke-width="1" fill="none"/><ellipse cx="630" cy="-670" rx="10" ry="10" locked="0" stroke="#FFFFFF" stroke-width="1" fill="none"/><ellipse cx="630" cy="-690" rx="10" ry="10" locked="0" stroke="#FFFFFF" stroke-width="1" fill="none"/><ellipse cx="650" cy="-550" rx="10" ry="10" locked="0" stroke="#FFFFFF" stroke-width="1" fill="none"/><ellipse cx="650" cy="-570" rx="10" ry="10" locked="0" stroke="#FFFFFF" stroke-width="1" fill="none"/><ellipse cx="650" cy="-590" rx="10" ry="10" locked="0" stroke="#FFFFFF" stroke-width="1" fill="none"/><ellipse cx="650" cy="-610" rx="10" ry="10" locked="0" stroke="#FFFFFF" stroke-width="1" fill="none"/><ellipse cx="650" cy="-630" rx="10" ry="10" locked="0" stroke="#FFFFFF" stroke-width="1" fill="none"/><ellipse cx="650" cy="-650" rx="10" ry="10" locked="0" stroke="#FFFFFF" stroke-width="1" fill="none"/><ellipse cx="650" cy="-670" rx="10" ry="10" locked="0" stroke="#FFFFFF" stroke-width="1" fill="none"/><ellipse cx="650" cy="-690" rx="10" ry="10" locked="0" stroke="#FFFFFF" stroke-width="1" fill="none"/><ellipse cx="670" cy="-550" rx="10" ry="10" locked="0" stroke="#FFFFFF" stroke-width="1" fill="none"/><ellipse cx="670" cy="-570" rx="10" ry="10" locked="0" stroke="#FFFFFF" stroke-width="1" fill="none"/><ellipse cx="670" cy="-590" rx="10" ry="10" locked="0" stroke="#FFFFFF" stroke-width="1" fill="none"/><ellipse cx="670" cy="-610" rx="10" ry="10" locked="0" stroke="#FFFFFF" stroke-width="1" fill="none"/><ellipse cx="670" cy="-630" rx="10" ry="10" locked="0" stroke="#FFFFFF" stroke-width="1" fill="none"/><ellipse cx="670" cy="-650" rx="10" ry="10" locked="0" stroke="#FFFFFF" stroke-width="1" fill="none"/><ellipse cx="670" cy="-670" rx="10" ry="10" locked="0" stroke="#FFFFFF" stroke-width="1" fill="none"/><ellipse cx="670" cy="-690" rx="10" ry="10" locked="0" stroke="#FFFFFF" stroke-width="1" fill="none"/><rect locked="0" x="520" y="-540" width="160" height="40" stroke="#FFFFFF" stroke-width="1" fill="none"/><g locked="0"><text x="583" y="-502" font-family="Arial" font-size="7pt" fill="#DD7474" text-anchor="start" transform="rotate(270,583,-502)">VCC</text><text x="579" y="-495" font-family="Arial" font-size="7pt" fill="#DD7474" text-anchor="end" transform="rotate(270,579,-495)">1</text><path d="M 580 -480 v -20" fill="none" stroke="#DD7474" stroke-width="1"/><circle cx="580" cy="-497" r="3" stroke="#FFFFFF" fill="none" stroke-width="1" display="none"/><path d="M 583 -500 L 580 -503 L 577 -500" fill="none" stroke="#FFFFFF" stroke-width="1" display="none"/></g><g locked="0"><text x="593" y="-502" font-family="Arial" font-size="7pt" fill="#7294D9" text-anchor="start" transform="rotate(270,593,-502)">GND</text><text x="589" y="-495" font-family="Arial" font-size="7pt" fill="#7294D9" text-anchor="end" transform="rotate(270,589,-495)">2</text><path d="M 590 -480 v -20" fill="none" stroke="#7294D9" stroke-width="1"/><circle cx="590" cy="-497" r="3" stroke="#FFFFFF" fill="none" stroke-width="1" display="none"/><path d="M 593 -500 L 590 -503 L 587 -500" fill="none" stroke="#FFFFFF" stroke-width="1" display="none"/></g><g locked="0"><text x="603" y="-502" font-family="Arial" font-size="7pt" fill="#FFFFFF" text-anchor="start" transform="rotate(270,603,-502)">DIN</text><text x="598.17" y="-495" font-family="Arial" font-size="7pt" fill="#FFFFFF" text-anchor="end" transform="rotate(270,598.17,-495)">3</text><path d="M 600 -480 v -20" fill="none" stroke="#FFFFFF" stroke-width="1"/><circle cx="600" cy="-497" r="3" stroke="#FFFFFF" fill="none" stroke-width="1" display="none"/><path d="M 603 -500 L 600 -503 L 597 -500" fill="none" stroke="#FFFFFF" stroke-width="1" display="none"/></g><g locked="0"><text x="613" y="-502" font-family="Arial" font-size="7pt" fill="#FFFFFF" text-anchor="start" transform="rotate(270,613,-502)">CS</text><text x="609" y="-495" font-family="Arial" font-size="7pt" fill="#FFFFFF" text-anchor="end" transform="rotate(270,609,-495)">4</text><path d="M 610 -480 v -20" fill="none" stroke="#FFFFFF" stroke-width="1"/><circle cx="610" cy="-497" r="3" stroke="#FFFFFF" fill="none" stroke-width="1" display="none"/><path d="M 613 -500 L 610 -503 L 607 -500" fill="none" stroke="#FFFFFF" stroke-width="1" display="none"/></g><g locked="0"><text x="623" y="-502" font-family="Arial" font-size="7pt" fill="#FFFFFF" text-anchor="start" transform="rotate(270,623,-502)">CLK</text><text x="619" y="-495" font-family="Arial" font-size="7pt" fill="#FFFFFF" text-anchor="end" transform="rotate(270,619,-495)">5</text><path d="M 620 -480 v -20" fill="none" stroke="#FFFFFF" stroke-width="1"/><circle cx="620" cy="-497" r="3" stroke="#FFFFFF" fill="none" stroke-width="1" display="none"/><path d="M 623 -500 L 620 -503 L 617 -500" fill="none" stroke="#FFFFFF" stroke-width="1" display="none"/></g><g locked="0"><text x="583" y="-688" font-family="Arial" font-size="7pt" fill="#FFFFFF" text-anchor="end" transform="rotate(270,583,-688)" display="none">VCC</text><path d="M 580 -720 v 20" fill="none" stroke="#FFFFFF" stroke-width="1"/><circle cx="580" cy="-703" r="3" stroke="#FFFFFF" fill="none" stroke-width="1" display="none"/><path d="M 577 -700 L 580 -697 L 583 -700" fill="none" stroke="#FFFFFF" stroke-width="1" display="none"/></g><g locked="0"><text x="593" y="-688" font-family="Arial" font-size="7pt" fill="#FFFFFF" text-anchor="end" transform="rotate(270,593,-688)" display="none">GND</text><path d="M 590 -720 v 20" fill="none" stroke="#FFFFFF" stroke-width="1"/><circle cx="590" cy="-703" r="3" stroke="#FFFFFF" fill="none" stroke-width="1" display="none"/><path d="M 587 -700 L 590 -697 L 593 -700" fill="none" stroke="#FFFFFF" stroke-width="1" display="none"/></g><g locked="0"><text x="603" y="-688" font-family="Arial" font-size="7pt" fill="#FFFFFF" text-anchor="end" transform="rotate(270,603,-688)" display="none">DIN</text><path d="M 600 -720 v 20" fill="none" stroke="#FFFFFF" stroke-width="1"/><circle cx="600" cy="-703" r="3" stroke="#FFFFFF" fill="none" stroke-width="1" display="none"/><path d="M 597 -700 L 600 -697 L 603 -700" fill="none" stroke="#FFFFFF" stroke-width="1" display="none"/></g><g locked="0"><text x="613" y="-688" font-family="Arial" font-size="7pt" fill="#FFFFFF" text-anchor="end" transform="rotate(270,613,-688)" display="none">CS</text><path d="M 610 -720 v 20" fill="none" stroke="#FFFFFF" stroke-width="1"/><circle cx="610" cy="-703" r="3" stroke="#FFFFFF" fill="none" stroke-width="1" display="none"/><path d="M 607 -700 L 610 -697 L 613 -700" fill="none" stroke="#FFFFFF" stroke-width="1" display="none"/></g><g locked="0"><text x="623" y="-688" font-family="Arial" font-size="7pt" fill="#FFFFFF" text-anchor="end" transform="rotate(270,623,-688)" display="none">CLK</text><path d="M 620 -720 v 20" fill="none" stroke="#FFFFFF" stroke-width="1"/><circle cx="620" cy="-703" r="3" stroke="#FFFFFF" fill="none" stroke-width="1" display="none"/><path d="M 617 -700 L 620 -697 L 623 -700" fill="none" stroke="#FFFFFF" stroke-width="1" display="none"/></g></g><g locked="0"><g><text x="507.0000047683716" y="-377.83332347869873" font-family="Arial" font-size="9pt" fill="#7294D9" text-anchor="start">GND</text></g><polyline points="520 -395 520 -405" stroke="#7294D9" locked="0" stroke-width="1" fill="transparent" stroke-linecap="round"/><polyline points="511 -395 529 -395" stroke="#7294D9" locked="0" stroke-width="1" fill="transparent" stroke-linecap="round"/><polyline points="514 -393 526 -393" stroke="#7294D9" locked="0" stroke-width="1" fill="transparent" stroke-linecap="round"/><polyline points="517 -391 523 -391" stroke="#7294D9" locked="0" stroke-width="1" fill="transparent" stroke-linecap="round"/><polyline points="519 -389 521 -389" stroke="#7294D9" locked="0" stroke-width="1" fill="transparent" stroke-linecap="round"/></g><g locked="0"><g><text x="509.28126335144043" y="-458.50001525878906" font-family="Arial" font-size="9pt" fill="#DD7474" text-anchor="start">+5V</text></g><polyline points="520 -470 520 -480" stroke="#DD7474" locked="0" stroke-width="1" fill="transparent" stroke-linecap="round"/><polyline points="525 -470 515 -470" stroke="#DD7474" locked="0" stroke-width="1" fill="transparent" stroke-linecap="round"/></g><polyline points="565 -295 610 -295 610 -480" stroke="#FFFFFF" locked="0" stroke-width="1" fill="none" stroke-linecap="round"/><polyline points="565 -305 620 -305 620 -480" stroke="#FFFFFF" locked="0" stroke-width="1" fill="none" stroke-linecap="round"/><polyline points="565 -315 600 -315 600 -480" stroke="#FFFFFF" locked="0" stroke-width="1" fill="none" stroke-linecap="round"/><g locked="0" puuid="159ab47bc24149c49e133b2c74c8f9c5" uuid="a051d2116935499aaf696691d80d6238" convert_to_pcb="yes" datastrid="ca7e3ba1e6ff47c18a0206a625d1f598" pdatastrid="90ec183dd94c4f1dae04a1195db0a5e9" utime="1659490645" add_into_bom="yes" note_pre="U1" note_name="MH-CD42"><g><text font-family="Arial" font-size="7pt" fill="#FFFFFF" text-anchor="start" x="449.03515625" y="-633">MH-CD42</text></g><g display="none"><text font-family="Arial" font-size="7pt" fill="#FFFFFF" text-anchor="start" x="449.03515625" y="-642">U1</text></g><g locked="0"><text x="433" y="-542" font-family="Arial" font-size="7pt" fill="#FFFFFF" text-anchor="start" transform="rotate(270,433,-542)">VIN</text><text x="429" y="-540" font-family="Arial" font-size="7pt" fill="#FFFFFF" text-anchor="end" display="none" transform="rotate(270,429,-540)">1</text><path d="M 430 -530 v -10" fill="none" stroke="#FFFFFF" stroke-width="1"/><circle cx="430" cy="-537" r="3" stroke="#FFFFFF" fill="none" stroke-width="1" display="none"/><path d="M 433 -540 L 430 -543 L 427 -540" fill="none" stroke="#FFFFFF" stroke-width="1" display="none"/></g><g locked="0"><text x="443" y="-542" font-family="Arial" font-size="7pt" fill="#FFFFFF" text-anchor="start" transform="rotate(270,443,-542)">GND</text><text x="439" y="-540" font-family="Arial" font-size="7pt" fill="#FFFFFF" text-anchor="end" display="none" transform="rotate(270,439,-540)">2</text><path d="M 440 -530 v -10" fill="none" stroke="#FFFFFF" stroke-width="1"/><circle cx="440" cy="-537" r="3" stroke="#FFFFFF" fill="none" stroke-width="1" display="none"/><path d="M 443 -540 L 440 -543 L 437 -540" fill="none" stroke="#FFFFFF" stroke-width="1" display="none"/></g><g locked="0"><text x="453" y="-542" font-family="Arial" font-size="7pt" fill="#FFFFFF" text-anchor="start" transform="rotate(270,453,-542)">GND</text><text x="449" y="-540" font-family="Arial" font-size="7pt" fill="#FFFFFF" text-anchor="end" display="none" transform="rotate(270,449,-540)">3</text><path d="M 450 -530 v -10" fill="none" stroke="#FFFFFF" stroke-width="1"/><circle cx="450" cy="-537" r="3" stroke="#FFFFFF" fill="none" stroke-width="1" display="none"/><path d="M 453 -540 L 450 -543 L 447 -540" fill="none" stroke="#FFFFFF" stroke-width="1" display="none"/></g><g locked="0"><text x="463" y="-542" font-family="Arial" font-size="7pt" fill="#FFFFFF" text-anchor="start" transform="rotate(270,463,-542)">BAT</text><text x="459" y="-540" font-family="Arial" font-size="7pt" fill="#FFFFFF" text-anchor="end" display="none" transform="rotate(270,459,-540)">4</text><path d="M 460 -530 v -10" fill="none" stroke="#FFFFFF" stroke-width="1"/><circle cx="460" cy="-537" r="3" stroke="#FFFFFF" fill="none" stroke-width="1" display="none"/><path d="M 463 -540 L 460 -543 L 457 -540" fill="none" stroke="#FFFFFF" stroke-width="1" display="none"/></g><g locked="0"><text x="473" y="-542" font-family="Arial" font-size="7pt" fill="#7294D9" text-anchor="start" transform="rotate(270,473,-542)">GND</text><text x="469" y="-540" font-family="Arial" font-size="7pt" fill="#FFFFFF" text-anchor="end" display="none" transform="rotate(270,469,-540)">5</text><path d="M 470 -530 v -10" fill="none" stroke="#7294D9" stroke-width="1"/><circle cx="470" cy="-537" r="3" stroke="#FFFFFF" fill="none" stroke-width="1" display="none"/><path d="M 473 -540 L 470 -543 L 467 -540" fill="none" stroke="#FFFFFF" stroke-width="1" display="none"/></g><g locked="0"><text x="483" y="-542" font-family="Arial" font-size="7pt" fill="#DD7474" text-anchor="start" transform="rotate(270,483,-542)">OUT</text><text x="479" y="-540" font-family="Arial" font-size="7pt" fill="#FFFFFF" text-anchor="end" display="none" transform="rotate(270,479,-540)">6</text><path d="M 480 -530 v -10" fill="none" stroke="#DD7474" stroke-width="1"/><circle cx="480" cy="-537" r="3" stroke="#FFFFFF" fill="none" stroke-width="1" display="none"/><path d="M 483 -540 L 480 -543 L 477 -540" fill="none" stroke="#FFFFFF" stroke-width="1" display="none"/></g><polyline points="420 -630 420 -540 490 -540 490 -630 420 -630" stroke="#FFFFFF" locked="0" stroke-width="1" fill="none" stroke-linecap="round"/></g><g locked="0" puuid="48eb7f287fc94bbd9fe6dc5360daef6d" uuid="ea28f0a24eee4ab9a0af810939a9ba99" convert_to_pcb="yes" datastrid="" pdatastrid="" utime="1621718399" add_into_bom="yes" note_pre="N1" note_name="SOLDERWIRE BIG"><g display="none"><text font-family="Arial" font-size="7pt" fill="#FFFFFF" text-anchor="start" x="382.53643798828125" y="-413">SOLDERWIRE BIG</text></g><g display="none"><text font-family="Arial" font-size="7pt" fill="#FFFFFF" text-anchor="start" x="382.5364475250244" y="-421.66668701171875">N1</text></g><g locked="0"><text x="368" y="-402" font-family="Arial" font-size="7pt" fill="#FFFFFF" text-anchor="end">BAT-</text><text x="390" y="-406" font-family="Arial" font-size="7pt" fill="#FFFFFF" text-anchor="start">5</text><path d="M 405 -405 h -20" fill="none" stroke="#FFFFFF" stroke-width="1"/><circle cx="388" cy="-405" r="3" stroke="#FFFFFF" fill="none" stroke-width="1" display="none"/><path d="M 385 -408 L 382 -405 L 385 -402" fill="none" stroke="#FFFFFF" stroke-width="1" display="none"/></g><polygon points="385 -405 380 -400 370 -400 370 -410 380 -410" stroke="#FFFFFF" locked="0" stroke-width="1" fill="none" stroke-linecap="round"/></g><g locked="0" puuid="48eb7f287fc94bbd9fe6dc5360daef6d" uuid="ea28f0a24eee4ab9a0af810939a9ba99" convert_to_pcb="yes" datastrid="" pdatastrid="" utime="1621718399" add_into_bom="yes" note_pre="N2" note_name="SOLDERWIRE BIG"><g display="none"><text font-family="Arial" font-size="7pt" fill="#FFFFFF" text-anchor="start" x="382.53643798828125" y="-388">SOLDERWIRE BIG</text></g><g display="none"><text font-family="Arial" font-size="7pt" fill="#FFFFFF" text-anchor="start" x="382.5364475250244" y="-396.66668701171875">N2</text></g><g locked="0"><text x="368" y="-377" font-family="Arial" font-size="7pt" fill="#FFFFFF" text-anchor="end">BAT+</text><text x="390" y="-381" font-family="Arial" font-size="7pt" fill="#FFFFFF" text-anchor="start">6</text><path d="M 405 -380 h -20" fill="none" stroke="#FFFFFF" stroke-width="1"/><circle cx="388" cy="-380" r="3" stroke="#FFFFFF" fill="none" stroke-width="1" display="none"/><path d="M 385 -383 L 382 -380 L 385 -377" fill="none" stroke="#FFFFFF" stroke-width="1" display="none"/></g><polygon points="385 -380 380 -375 370 -375 370 -385 380 -385" stroke="#FFFFFF" locked="0" stroke-width="1" fill="none" stroke-linecap="round"/></g><g locked="0" puuid="48eb7f287fc94bbd9fe6dc5360daef6d" uuid="ea28f0a24eee4ab9a0af810939a9ba99" convert_to_pcb="yes" datastrid="" pdatastrid="" utime="1621718399" add_into_bom="yes" note_pre="N4" note_name="SOLDERWIRE BIG"><g display="none"><text font-family="Arial" font-size="7pt" fill="#FFFFFF" text-anchor="start" x="382.5364685058594" y="-438">SOLDERWIRE BIG</text></g><g display="none"><text font-family="Arial" font-size="7pt" fill="#FFFFFF" text-anchor="start" x="382.53647804260254" y="-446.66668701171875">N4</text></g><g locked="0"><text x="368" y="-427" font-family="Arial" font-size="7pt" fill="#FFFFFF" text-anchor="end">USB-</text><text x="390" y="-431" font-family="Arial" font-size="7pt" fill="#FFFFFF" text-anchor="start">4</text><path d="M 405 -430 h -20" fill="none" stroke="#FFFFFF" stroke-width="1"/><circle cx="388" cy="-430" r="3" stroke="#FFFFFF" fill="none" stroke-width="1" display="none"/><path d="M 385 -433 L 382 -430 L 385 -427" fill="none" stroke="#FFFFFF" stroke-width="1" display="none"/></g><polygon points="385 -430 380 -425 370 -425 370 -435 380 -435" stroke="#FFFFFF" locked="0" stroke-width="1" fill="none" stroke-linecap="round"/></g><g locked="0" puuid="48eb7f287fc94bbd9fe6dc5360daef6d" uuid="ea28f0a24eee4ab9a0af810939a9ba99" convert_to_pcb="yes" datastrid="" pdatastrid="" utime="1621718399" add_into_bom="yes" note_name="SOLDERWIRE BIG" note_pre="N5"><g display="none"><text font-family="Arial" font-size="7pt" fill="#FFFFFF" text-anchor="start" x="382.53125" y="-288.00002002716064">SOLDERWIRE BIG</text></g><g display="none"><text font-family="Arial" font-size="7pt" fill="#FFFFFF" text-anchor="start" x="382.53125" y="-296.99999141693115">N5</text></g><g locked="0"><text x="368" y="-277" font-family="Arial" font-size="7pt" fill="#FFFFFF" text-anchor="end">GND</text><text x="390" y="-281" font-family="Arial" font-size="7pt" fill="#7294D9" text-anchor="start">10</text><path d="M 405 -280 h -20" fill="none" stroke="#7294D9" stroke-width="1"/><circle cx="388" cy="-280" r="3" stroke="#FFFFFF" fill="none" stroke-width="1" display="none"/><path d="M 385 -283 L 382 -280 L 385 -277" fill="none" stroke="#FFFFFF" stroke-width="1" display="none"/></g><polygon points="385 -280 380 -275 370 -275 370 -285 380 -285" stroke="#FFFFFF" locked="0" stroke-width="1" fill="none" stroke-linecap="round"/></g><g locked="0" puuid="48eb7f287fc94bbd9fe6dc5360daef6d" uuid="ea28f0a24eee4ab9a0af810939a9ba99" convert_to_pcb="yes" datastrid="" pdatastrid="" utime="1621718399" add_into_bom="yes" note_pre="N6" note_name="SOLDERWIRE BIG"><g display="none"><text font-family="Arial" font-size="7pt" fill="#FFFFFF" text-anchor="start" x="382.53125" y="-313.00002002716064">SOLDERWIRE BIG</text></g><g display="none"><text font-family="Arial" font-size="7pt" fill="#FFFFFF" text-anchor="start" x="382.53125" y="-321.99999141693115">N6</text></g><g locked="0"><text x="368" y="-302" font-family="Arial" font-size="7pt" fill="#FFFFFF" text-anchor="end">ROLL</text><text x="390" y="-306" font-family="Arial" font-size="7pt" fill="#FFFFFF" text-anchor="start">9</text><path d="M 405 -305 h -20" fill="none" stroke="#FFFFFF" stroke-width="1"/><circle cx="388" cy="-305" r="3" stroke="#FFFFFF" fill="none" stroke-width="1" display="none"/><path d="M 385 -308 L 382 -305 L 385 -302" fill="none" stroke="#FFFFFF" stroke-width="1" display="none"/></g><polygon points="385 -305 380 -300 370 -300 370 -310 380 -310" stroke="#FFFFFF" locked="0" stroke-width="1" fill="none" stroke-linecap="round"/></g><g locked="0" puuid="48eb7f287fc94bbd9fe6dc5360daef6d" uuid="ea28f0a24eee4ab9a0af810939a9ba99" convert_to_pcb="yes" datastrid="" pdatastrid="" utime="1621718399" add_into_bom="yes" note_name="SOLDERWIRE BIG" note_pre="N7"><g display="none"><text font-family="Arial" font-size="7pt" fill="#FFFFFF" text-anchor="start" x="382.53125" y="-337.9999895095825">SOLDERWIRE BIG</text></g><g display="none"><text font-family="Arial" font-size="7pt" fill="#FFFFFF" text-anchor="start" x="382.53125" y="-346.99999141693115">N7</text></g><g locked="0"><text x="368" y="-327" font-family="Arial" font-size="7pt" fill="#FFFFFF" text-anchor="end">GND</text><text x="390" y="-331" font-family="Arial" font-size="7pt" fill="#7294D9" text-anchor="start">8</text><path d="M 405 -330 h -20" fill="none" stroke="#7294D9" stroke-width="1"/><circle cx="388" cy="-330" r="3" stroke="#FFFFFF" fill="none" stroke-width="1" display="none"/><path d="M 385 -333 L 382 -330 L 385 -327" fill="none" stroke="#FFFFFF" stroke-width="1" display="none"/></g><polygon points="385 -330 380 -325 370 -325 370 -335 380 -335" stroke="#FFFFFF" locked="0" stroke-width="1" fill="none" stroke-linecap="round"/></g><g locked="0" puuid="48eb7f287fc94bbd9fe6dc5360daef6d" uuid="ea28f0a24eee4ab9a0af810939a9ba99" convert_to_pcb="yes" datastrid="" pdatastrid="" utime="1621718399" add_into_bom="yes" note_name="SOLDERWIRE BIG" note_pre="N8"><g display="none"><text font-family="Arial" font-size="7pt" fill="#FFFFFF" text-anchor="start" x="382.53125" y="-362.9999895095825">SOLDERWIRE BIG</text></g><g display="none"><text font-family="Arial" font-size="7pt" fill="#FFFFFF" text-anchor="start" x="382.53125" y="-371.99999141693115">N8</text></g><g locked="0"><text x="368" y="-352" font-family="Arial" font-size="7pt" fill="#FFFFFF" text-anchor="end">MODE</text><text x="390" y="-356" font-family="Arial" font-size="7pt" fill="#FFFFFF" text-anchor="start">7</text><path d="M 405 -355 h -20" fill="none" stroke="#FFFFFF" stroke-width="1"/><circle cx="388" cy="-355" r="3" stroke="#FFFFFF" fill="none" stroke-width="1" display="none"/><path d="M 385 -358 L 382 -355 L 385 -352" fill="none" stroke="#FFFFFF" stroke-width="1" display="none"/></g><polygon points="385 -355 380 -350 370 -350 370 -360 380 -360" stroke="#FFFFFF" locked="0" stroke-width="1" fill="none" stroke-linecap="round"/></g><g locked="0" puuid="48eb7f287fc94bbd9fe6dc5360daef6d" uuid="ea28f0a24eee4ab9a0af810939a9ba99" convert_to_pcb="yes" datastrid="" pdatastrid="" utime="1621718399" add_into_bom="yes" note_name="SOLDERWIRE BIG" note_pre="N9"><g display="none"><text font-family="Arial" font-size="7pt" fill="#FFFFFF" text-anchor="start" x="382.534912109375" y="-513">SOLDERWIRE BIG</text></g><g display="none"><text font-family="Arial" font-size="7pt" fill="#FFFFFF" text-anchor="start" x="382.5349333953858" y="-521.7646923828124">N9</text></g><g locked="0"><text x="368" y="-502" font-family="Arial" font-size="7pt" fill="#FFFFFF" text-anchor="end">SW-</text><text x="390" y="-506" font-family="Arial" font-size="7pt" fill="#DD7474" text-anchor="start">1</text><path d="M 405 -505 h -20" fill="none" stroke="#DD7474" stroke-width="1"/><circle cx="388" cy="-505" r="3" stroke="#FFFFFF" fill="none" stroke-width="1" display="none"/><path d="M 385 -508 L 382 -505 L 385 -502" fill="none" stroke="#FFFFFF" stroke-width="1" display="none"/></g><polygon points="385 -505 380 -500 370 -500 370 -510 380 -510" stroke="#FFFFFF" locked="0" stroke-width="1" fill="none" stroke-linecap="round"/></g><g locked="0" puuid="48eb7f287fc94bbd9fe6dc5360daef6d" uuid="ea28f0a24eee4ab9a0af810939a9ba99" convert_to_pcb="yes" datastrid="" pdatastrid="" utime="1621718399" add_into_bom="yes" note_name="SOLDERWIRE BIG" note_pre="N10"><g display="none"><text font-family="Arial" font-size="7pt" fill="#FFFFFF" text-anchor="start" x="379.93841552734375" y="-488">SOLDERWIRE BIG</text></g><g display="none"><text font-family="Arial" font-size="7pt" fill="#FFFFFF" text-anchor="start" x="379.93839675903325" y="-496.7646923828124">N10</text></g><g locked="0"><text x="368" y="-477" font-family="Arial" font-size="7pt" fill="#FFFFFF" text-anchor="end">SW+</text><text x="390" y="-481" font-family="Arial" font-size="7pt" fill="#DD7474" text-anchor="start">2</text><path d="M 405 -480 h -20" fill="none" stroke="#DD7474" stroke-width="1"/><circle cx="388" cy="-480" r="3" stroke="#FFFFFF" fill="none" stroke-width="1" display="none"/><path d="M 385 -483 L 382 -480 L 385 -477" fill="none" stroke="#FFFFFF" stroke-width="1" display="none"/></g><polygon points="385 -480 380 -475 370 -475 370 -485 380 -485" stroke="#FFFFFF" locked="0" stroke-width="1" fill="none" stroke-linecap="round"/></g><polyline points="485 -305 405 -305" stroke="#FFFFFF" stroke-width="1" fill="none"/><polyline points="405 -380 460 -380 460 -530" stroke="#FFFFFF" stroke-width="1" fill="none"/><polyline points="450 -530 450 -405 405 -405" stroke="#FFFFFF" stroke-width="1" fill="none"/><polyline points="405 -430 440 -430 440 -530" stroke="#FFFFFF" stroke-width="1" fill="none"/><polyline points="405 -455 430 -455 430 -530" stroke="#FFFFFF" stroke-width="1" fill="none"/><g locked="0" puuid="48eb7f287fc94bbd9fe6dc5360daef6d" uuid="ea28f0a24eee4ab9a0af810939a9ba99" convert_to_pcb="yes" datastrid="" pdatastrid="" utime="1621718399" add_into_bom="yes" note_name="SOLDERWIRE BIG" note_pre="N3"><g display="none"><text font-family="Arial" font-size="7pt" fill="#FFFFFF" text-anchor="start" x="382.53643798828125" y="-463">SOLDERWIRE BIG</text></g><g display="none"><text font-family="Arial" font-size="7pt" fill="#FFFFFF" text-anchor="start" x="382.5364475250244" y="-471.66668701171875">N3</text></g><g locked="0"><text x="368" y="-452" font-family="Arial" font-size="7pt" fill="#FFFFFF" text-anchor="end">USB+</text><text x="390" y="-456" font-family="Arial" font-size="7pt" fill="#FFFFFF" text-anchor="start">3</text><path d="M 405 -455 h -20" fill="none" stroke="#FFFFFF" stroke-width="1"/><circle cx="388" cy="-455" r="3" stroke="#FFFFFF" fill="none" stroke-width="1" display="none"/><path d="M 385 -458 L 382 -455 L 385 -452" fill="none" stroke="#FFFFFF" stroke-width="1" display="none"/></g><polygon points="385 -455 380 -450 370 -450 370 -460 380 -460" stroke="#FFFFFF" locked="0" stroke-width="1" fill="none" stroke-linecap="round"/></g><polyline points="480 -530 480 -505 405 -505" stroke="#DD7474" stroke-width="1" fill="none"/><polyline points="405 -480 580 -480" stroke="#DD7474" stroke-width="1" fill="none"/><polyline points="565 -325 580 -325 580 -480" stroke="#DD7474" stroke-width="1" fill="none"/><polyline points="590 -480 590 -405 470 -405 470 -530" stroke="#7294D9" stroke-width="1" fill="none"/><g note_name="none"><g display="none"><text font-family="Arial" font-size="7pt" fill="#FFFFFF" text-anchor="start" x="525" y="-275">none</text></g><g style=""><text x="500" y="-340" font-family="Arial" font-size="7pt" fill="#FFFFFF" text-anchor="start">ATTINY8520PU</text></g><ellipse cx="500" cy="-330" rx="1.5" ry="1.5" locked="0" stroke="#FFFFFF" stroke-width="1" fill="#FFFFFF"/><rect locked="0" x="495" y="-335" rx="2" ry="2" width="70" height="50" stroke="#FFFFFF" stroke-width="1" fill="none"/><g locked="0"><text x="551.3" y="-311" font-family="Arial" font-size="7pt" fill="#FFFFFF" text-anchor="end">PB2</text><text x="555.5" y="-316" font-family="Arial" font-size="7pt" fill="#FFFFFF" text-anchor="start">7</text><path d="M 565 -315 h -10" fill="none" stroke="#FFFFFF" stroke-width="1"/><circle cx="558" cy="-315" r="3" stroke="#FFFFFF" fill="none" stroke-width="1" display="none"/><path d="M 555 -318 L 552 -315 L 555 -312" fill="none" stroke="#FFFFFF" stroke-width="1" display="none"/></g><g locked="0"><text x="551.3" y="-301" font-family="Arial" font-size="7pt" fill="#FFFFFF" text-anchor="end">PB1</text><text x="555.5" y="-306" font-family="Arial" font-size="7pt" fill="#FFFFFF" text-anchor="start">6</text><path d="M 565 -305 h -10" fill="none" stroke="#FFFFFF" stroke-width="1"/><circle cx="558" cy="-305" r="3" stroke="#FFFFFF" fill="none" stroke-width="1" display="none"/><path d="M 555 -308 L 552 -305 L 555 -302" fill="none" stroke="#FFFFFF" stroke-width="1" display="none"/></g><g locked="0"><text x="551.3" y="-291" font-family="Arial" font-size="7pt" fill="#FFFFFF" text-anchor="end">PB0</text><text x="555.5" y="-296" font-family="Arial" font-size="7pt" fill="#FFFFFF" text-anchor="start">5</text><path d="M 565 -295 h -10" fill="none" stroke="#FFFFFF" stroke-width="1"/><circle cx="558" cy="-295" r="3" stroke="#FFFFFF" fill="none" stroke-width="1" display="none"/><path d="M 555 -298 L 552 -295 L 555 -292" fill="none" stroke="#FFFFFF" stroke-width="1" display="none"/></g><g locked="0"><text x="498.70000000000005" y="-311" font-family="Arial" font-size="7pt" fill="#FFFFFF" text-anchor="start">PB3</text><text x="494.5" y="-316" font-family="Arial" font-size="7pt" fill="#FFFFFF" text-anchor="end">2</text><path d="M 485 -315 h 10" fill="none" stroke="#FFFFFF" stroke-width="1"/><circle cx="492" cy="-315" r="3" stroke="#FFFFFF" fill="none" stroke-width="1" display="none"/><path d="M 495 -312 L 498 -315 L 495 -318" fill="none" stroke="#FFFFFF" stroke-width="1" display="none"/></g><g locked="0"><text x="498.70000000000005" y="-301" font-family="Arial" font-size="7pt" fill="#FFFFFF" text-anchor="start">PB4</text><text x="494.5" y="-306" font-family="Arial" font-size="7pt" fill="#FFFFFF" text-anchor="end">3</text><path d="M 485 -305 h 10" fill="none" stroke="#FFFFFF" stroke-width="1"/><circle cx="492" cy="-305" r="3" stroke="#FFFFFF" fill="none" stroke-width="1" display="none"/><path d="M 495 -302 L 498 -305 L 495 -308" fill="none" stroke="#FFFFFF" stroke-width="1" display="none"/></g><g locked="0"><text x="498.70000000000005" y="-291" font-family="Arial" font-size="7pt" fill="#7294D9" text-anchor="start">GND</text><text x="494.5" y="-296" font-family="Arial" font-size="7pt" fill="#7294D9" text-anchor="end">4</text><path d="M 485 -295 h 10" fill="none" stroke="#7294D9" stroke-width="1"/><circle cx="492" cy="-295" r="3" stroke="#FFFFFF" fill="none" stroke-width="1" display="none"/><path d="M 495 -292 L 498 -295 L 495 -298" fill="none" stroke="#FFFFFF" stroke-width="1" display="none"/></g><g locked="0"><text x="551.3" y="-321" font-family="Arial" font-size="7pt" fill="#DD7474" text-anchor="end">VCC</text><text x="555.5" y="-326" font-family="Arial" font-size="7pt" fill="#DD7474" text-anchor="start">8</text><path d="M 565 -325 h -10" fill="none" stroke="#DD7474" stroke-width="1"/><circle cx="558" cy="-325" r="3" stroke="#FFFFFF" fill="none" stroke-width="1" display="none"/><path d="M 555 -328 L 552 -325 L 555 -322" fill="none" stroke="#FFFFFF" stroke-width="1" display="none"/></g><g locked="0"><text x="498.70000000000005" y="-321" font-family="Arial" font-size="7pt" fill="#FFFFFF" text-anchor="start">PB5</text><text x="494.5" y="-326" font-family="Arial" font-size="7pt" fill="#FFFFFF" text-anchor="end">1</text><path d="M 485 -325 h 10" fill="none" stroke="#FFFFFF" stroke-width="1"/><circle cx="492" cy="-325" r="3" stroke="#FFFFFF" fill="none" stroke-width="1" display="none"/><path d="M 495 -322 L 498 -325 L 495 -328" fill="none" stroke="#FFFFFF" stroke-width="1" display="none"/></g></g><polyline points="405 -355 440 -355 440 -315 485 -315" stroke="#FFFFFF" stroke-width="1" fill="none"/><polyline points="405 -330 430 -330 430 -295 470 -295" stroke="#7294D9" stroke-width="1" fill="none"/><polyline points="405 -280 430 -280 430 -295" stroke="#7294D9" stroke-width="1" fill="none"/><polyline points="485 -295 470 -295 470 -405" stroke="#7294D9" stroke-width="1" fill="none"/><g><circle cx="580" cy="-480" r="2.5" fill="#DD7474" stroke-width="1"/></g><g><circle cx="520" cy="-480" r="2.5" fill="#DD7474" stroke-width="1"/></g><g><circle cx="430" cy="-295" r="2.5" fill="#7294D9" stroke-width="1"/></g><g><circle cx="470" cy="-405" r="2.5" fill="#7294D9" stroke-width="1"/></g><g><circle cx="470" cy="-295" r="2.5" fill="#7294D9" stroke-width="1"/></g><g><circle cx="520" cy="-405" r="2.5" fill="#7294D9" stroke-width="1"/></g></g></svg>